# xmcd
#
# Track frame offsets: 
#        150
#        16926
#        32121
#        53903
#        69637
#        91617
#        122562
#        138715
#        161486
#        183425
#        200417
#
# Disc length: 2896 seconds
#
# Revision: 0
# Processed by: cddbd v1.5.2PL0 Copyright (c) Steve Scherf et al.
# Submitted via: ExactAudioCopy v1.3
#
DISCID=910b4e0b
DTITLE=Michael Bloom And The Blues Prophecy - Whisper In The Wind
DYEAR=2019
DGENRE=Blues Rock
TTITLE0=Time On My Hands
TTITLE1=Whisper In The Wind
TTITLE2=Just Can't Win
TTITLE3=I Remember Love
TTITLE4=Brownsville
TTITLE5=Old Man Blues
TTITLE6=Till I Met You
TTITLE7=No Luck At All
TTITLE8=Lisa
TTITLE9=I Ain't Got The Blues
TTITLE10=Dust My Broom
EXTD=
EXTT0=
EXTT1=
EXTT2=
EXTT3=
EXTT4=
EXTT5=
EXTT6=
EXTT7=
EXTT8=
EXTT9=
EXTT10=
PLAYORDER=
